#N canvas 743 244 594 468 10;
#X obj 131 104 fiddle~ 1024 1 20 3;
#X obj 154 369 hsv2rgb;
#X obj 422 95 unpack;
#X obj 422 55 route 1 2 3 4;
#X obj 475 96 unpack;
#X obj 526 96 unpack;
#X obj 447 144 -;
#X obj 498 143 .;
#X obj 448 174 abs;
#X obj 493 177 abs;
#X obj 295 6 inlet;
#X obj 158 340 pack f 1 f;
#X obj 188 187 / 100;
#X obj 354 248 vsl 15 128 0 1 0 0 empty empty empty 0 -9 0 10 -262144
-1 -1 0 1;
#X obj 121 238 mod 24;
#X obj 119 278 / 24;
#X obj 187 257 line 0 20;
#X obj 187 224 pack \$1 100;
#X obj 189 138 - 20;
#X obj 187 160 * 1.6;
#X obj 288 69 switch~;
#X obj 287 41 tgl 15 0 empty empty empty 17 7 0 10 -262144 -1 -1 0
1;
#X floatatom 148 178 5 0 0 0 - - -, f 5;
#X obj 151 395 s audio-cor;
#X floatatom 280 171 5 0 0 0 - - -, f 5;
#X floatatom 441 238 5 0 0 0 - - -, f 5;
#X obj 438 206 expr ($f1+$f2)*50;
#X obj 234 319 s audio-vol;
#X obj 182 288 t b f f;
#X obj 67 23 r~ audioIn-L;
#X obj 149 22 r~ audioIn-R;
#X connect 0 0 14 0;
#X connect 0 0 22 0;
#X connect 0 3 18 0;
#X connect 0 4 3 0;
#X connect 1 0 23 0;
#X connect 2 1 6 0;
#X connect 2 1 7 0;
#X connect 3 0 2 0;
#X connect 3 1 4 0;
#X connect 3 2 5 0;
#X connect 4 1 6 1;
#X connect 5 1 7 1;
#X connect 6 0 8 0;
#X connect 7 0 9 0;
#X connect 8 0 26 0;
#X connect 9 0 26 1;
#X connect 10 0 21 0;
#X connect 11 0 1 0;
#X connect 12 0 13 0;
#X connect 12 0 17 0;
#X connect 14 0 15 0;
#X connect 15 0 11 0;
#X connect 16 0 28 0;
#X connect 17 0 16 0;
#X connect 18 0 19 0;
#X connect 19 0 12 0;
#X connect 21 0 20 0;
#X connect 26 0 25 0;
#X connect 28 0 11 0;
#X connect 28 1 11 2;
#X connect 28 2 27 0;
#X connect 28 2 24 0;
#X connect 29 0 0 0;
#X connect 30 0 0 0;
