#N canvas 357 187 417 305 10;
#X obj 235 241 hsl 128 15 0 5 0 0 empty empty empty -2 -8 0 10 -262144
-1 -1 0 1;
#X obj 118 52 fiddle~ 2048;
#X obj 117 13 adc~;
#X obj 118 83 mod 12;
#X obj 207 169 / 100;
#X floatatom 228 76 5 0 0 0 - - -, f 5;
#X obj 207 141 - 72;
#X obj 255 130 expr 100 - $f1;
#X obj 228 107 t f f;
#X obj 118 109 / 12;
#X floatatom 259 174 5 0 0 0 - - -, f 5;
#X floatatom 317 188 5 0 0 0 - - -, f 5;
#X obj 118 146 s Bl-Cor;
#X obj 207 265 s Bl-Tamanho;
#X obj 207 192 * 16;
#X obj 45 48 switch~;
#X obj 41 15 inlet;
#X obj 222 11 inlet;
#X obj 224 52 hsl 128 15 1 90 0 0 empty empty nivel_Input -2 -8 0 10
-262144 -1 -1 9846 1;
#X obj 319 6 r B;
#X msg 319 27 70;
#X connect 1 0 3 0;
#X connect 1 3 6 0;
#X connect 2 0 1 0;
#X connect 2 1 1 0;
#X connect 3 0 9 0;
#X connect 4 0 14 0;
#X connect 5 0 8 0;
#X connect 6 0 4 0;
#X connect 7 0 4 1;
#X connect 7 0 11 0;
#X connect 8 0 6 1;
#X connect 8 1 7 0;
#X connect 9 0 12 0;
#X connect 10 0 14 1;
#X connect 14 0 0 0;
#X connect 14 0 13 0;
#X connect 16 0 15 0;
#X connect 17 0 18 0;
#X connect 18 0 5 0;
#X connect 19 0 20 0;
#X connect 20 0 18 0;
