#N canvas 352 268 589 434 10;
#X obj 25 166 vu 15 120 empty empty -1 -8 0 10 -66577 -1 1 0;
#X obj 32 116 env~;
#X obj 24 139 - 100;
#X obj 102 55 adc~;
#X obj 131 104 fiddle~ 1024 1 20 3;
#X obj 154 369 hsv2rgb;
#X obj 422 95 unpack;
#X obj 422 55 route 1 2 3 4;
#X obj 475 96 unpack;
#X obj 526 96 unpack;
#X obj 447 144 -;
#X obj 498 143 .;
#X obj 448 174 abs;
#X obj 493 177 abs;
#X obj 151 395 s Life-cor;
#X obj 295 6 inlet;
#X obj 158 340 pack f 1 f;
#X obj 188 187 / 100;
#X obj 354 248 vsl 15 128 0 1 0 0 empty empty empty 0 -9 0 10 -262144
-1 -1 5368 1;
#X obj 187 295 t b f;
#X obj 121 238 mod 24;
#X obj 119 278 / 24;
#X obj 187 257 line 0 20;
#X obj 189 138 - 20;
#X obj 187 160 * 1.6;
#X obj 288 69 switch~;
#X obj 287 41 tgl 15 0 empty empty empty 17 7 0 10 -262144 -1 -1 1
1;
#X floatatom 148 178 5 0 0 0 - - -, f 5;
#X obj 187 224 pack \$1 200;
#X floatatom 426 245 5 0 0 0 - - -, f 5;
#X obj 421 207 expr ($f1+$f2)*1000;
#X connect 1 0 2 0;
#X connect 2 0 0 0;
#X connect 3 0 4 0;
#X connect 3 1 4 0;
#X connect 3 1 1 0;
#X connect 4 0 20 0;
#X connect 4 0 27 0;
#X connect 4 3 23 0;
#X connect 4 4 7 0;
#X connect 5 0 14 0;
#X connect 6 1 10 0;
#X connect 6 1 11 0;
#X connect 7 0 6 0;
#X connect 7 1 8 0;
#X connect 7 2 9 0;
#X connect 8 1 10 1;
#X connect 9 1 11 1;
#X connect 10 0 12 0;
#X connect 11 0 13 0;
#X connect 12 0 30 0;
#X connect 13 0 30 1;
#X connect 15 0 26 0;
#X connect 16 0 5 0;
#X connect 17 0 18 0;
#X connect 17 0 28 0;
#X connect 19 0 16 0;
#X connect 19 1 16 2;
#X connect 20 0 21 0;
#X connect 21 0 16 0;
#X connect 22 0 19 0;
#X connect 23 0 24 0;
#X connect 24 0 17 0;
#X connect 26 0 25 0;
#X connect 28 0 22 0;
#X connect 29 0 16 1;
#X connect 30 0 29 0;
