#N canvas 405 64 367 703 10;
#X obj 261 80 tgl 15 0 empty empty empty 17 7 0 10 -262144 -1 -1 1
1;
#X msg 261 102 \; pd dsp \$1;
#X obj 60 424 JW-A;
#X floatatom 24 50 5 0 0 0 - - -, f 5;
#N canvas 553 122 768 586 COMUNICATIONS-A 0;
#X obj 26 23 netreceive 8000;
#X obj 26 201 s JW-Audio-Play;
#X obj 12 115 sel 0 1;
#X msg 7 138 stop;
#X obj 190 77 outlet;
#X obj 168 443 netsend;
#X obj 169 491 outlet;
#X msg 261 52 connect localhost 8001;
#X obj 261 9 inlet;
#X obj 352 323 r Bl-Cor;
#X obj 403 408 prepend send;
#X obj 447 301 r Bl-Tamanho;
#X msg 362 365 Bolinhas COR \$1;
#X msg 478 364 Bolinhas TAMANHO \$1;
#X obj 658 321 r Life-cor;
#X msg 284 86 disconnect;
#X msg 627 377 Life Cor \$1 \$2 \$3;
#X obj 11 86 route JW Bolinhas nuAir;
#X obj 146 180 s;
#X obj 119 126 unpack f s;
#X obj 600 270 r trig;
#X msg 600 297 Explosion bang;
#X obj 396 92 r audio-cor;
#X msg 530 95 1 0 1;
#X obj 606 88 r audio-vol;
#X msg 606 117 send audio-vol \$1;
#X floatatom 463 175 5 0 0 0 - - -, f 5;
#X msg 400 123 send audio-cor \$1 \$2 \$3;
#X connect 0 0 17 0;
#X connect 0 1 4 0;
#X connect 2 0 3 0;
#X connect 2 1 1 0;
#X connect 3 0 1 0;
#X connect 5 0 6 0;
#X connect 7 0 5 0;
#X connect 8 0 7 0;
#X connect 9 0 12 0;
#X connect 10 0 5 0;
#X connect 11 0 13 0;
#X connect 12 0 10 0;
#X connect 13 0 10 0;
#X connect 14 0 16 0;
#X connect 15 0 5 0;
#X connect 16 0 10 0;
#X connect 17 0 2 0;
#X connect 17 2 19 0;
#X connect 19 0 18 0;
#X connect 19 1 18 1;
#X connect 20 0 21 0;
#X connect 21 0 10 0;
#X connect 22 0 27 0;
#X connect 22 0 26 0;
#X connect 23 0 27 0;
#X connect 24 0 25 0;
#X connect 25 0 5 0;
#X connect 27 0 5 0;
#X restore 26 29 pd COMUNICATIONS-A;
#X obj 117 57 tgl 15 0 empty empty empty 17 7 0 10 -262144 -1 -1 1
1;
#X obj 27 3 bng 15 250 50 0 empty empty empty 17 7 0 10 -262144 -1
-1;
#X obj 24 101 tgl 15 0 empty empty empty 17 7 0 10 -262144 -1 -1 0
1;
#X obj 269 375 Explosion-A;
#X obj 212 258 bng 100 250 50 0 empty empty empty 17 7 0 10 -260097
-1 -1;
#X obj 224 55 loadbang;
#X obj 48 519 Bolinhas-A;
#X obj 28 517 tgl 15 0 empty empty empty 17 7 0 10 -262144 -1 -1 0
1;
#X obj 53 326 nuAir-A;
#X obj 33 327 tgl 15 0 empty empty empty 17 7 0 10 -262144 -1 -1 0
1;
#X obj 34 424 tgl 15 0 empty empty empty 17 7 0 10 -262144 -1 -1 0
1;
#X obj 24 126 Life-A;
#X obj 162 117 audio2cor;
#X obj 162 98 tgl 15 0 empty empty empty 17 7 0 10 -262144 -1 -1 1
1;
#N canvas 482 98 679 669 frsb2synth 1;
#X obj 36 27 adc~;
#X obj 46 67 s~ micIn;
#X obj 192 393 r~ micIn;
#X obj 390 31 r~ micIn;
#X obj 391 54 fiddle~;
#X obj 402 83 bng 15 250 50 0 empty empty empty 17 7 0 10 -262144 -1
-1;
#X floatatom 481 79 5 0 0 0 - - -, f 5;
#X obj 325 107 mtof;
#X obj 298 590 *~;
#X obj 357 556 vsl 20 60 0 1 0 0 empty Vol-r empty 0 -9 0 10 -262144
-1 -1 5310 1;
#X obj 194 501 *~;
#X obj 220 193 phasor~;
#X floatatom 219 160 5 0 0 0 - - -, f 5;
#X obj 573 28 vsl 30 80 0 300 0 0 att att-r att 0 -9 0 10 -262144 -1
-1 1053 1;
#X obj 472 246 vsl 15 128 0 127 0 0 empty empty empty 0 -9 0 10 -262144
-1 -1 100 1;
#X obj 424 380 mtof;
#X obj 142 452 vsl 20 60 0 1 0 0 empty vol_micIn-r empty 0 -9 0 10
-262144 -1 -1 1180 1;
#X obj 383 489 *~;
#X obj 504 244 vsl 15 128 0 4 0 0 empty empty empty 0 -9 0 10 -262144
-1 -1 12065 1;
#X floatatom 518 381 5 0 0 0 - - -, f 5;
#X floatatom 430 307 5 0 0 0 - - -, f 5;
#X obj 302 549 +~;
#X obj 459 165 pack f f;
#X obj 422 224 line;
#X obj 455 134 f;
#X obj 404 134 r att;
#X obj 632 31 vsl 30 80 0 1000 0 0 dec dec-r dec 0 -9 0 10 -262144
-1 -1 5925 1;
#X obj 418 170 r dec;
#X obj 459 53 s amp;
#X obj 585 463 r dec;
#X obj 397 108 t b b b;
#X obj 508 137 s hit;
#X obj 508 114 bng 15 250 50 0 empty empty empty 17 7 0 10 -262144
-1 -1;
#X floatatom 583 509 5 0 0 0 - - -, f 5;
#X floatatom 585 131 5 0 0 0 - - -, f 5;
#X obj 476 403 t b b;
#X obj 376 193 pack 1 f;
#X obj 359 157 del 1000;
#X floatatom 644 129 5 0 0 0 - - -, f 5;
#X obj 461 427 del 1000;
#X obj 542 261 f;
#X obj 577 260 / 90;
#X obj 536 227 r hit;
#X obj 231 523 hip~ 500;
#X floatatom 266 482 5 0 0 0 - - -, f 5;
#X obj 269 227 phasor~;
#X obj 263 275 +~;
#X obj 574 205 r amp;
#X obj 283 323 *~;
#X obj 341 266 expr~ $v1 > 0.5;
#X obj 328 238 phasor~;
#X obj 542 289 s ampOnHit;
#X obj 214 124 r ampOnHit;
#X obj 37 185 loadbang;
#X obj 504 205 r bp2;
#X obj 481 478 lop~ 3;
#X obj 290 374 moog~;
#X obj 351 371 sig~;
#X obj 353 338 sig~;
#X msg 466 452 0;
#X msg 515 449 1;
#X obj 376 527 *~;
#X obj 424 510 vsl 20 60 0 1 0 0 empty vol_synth-r empty 0 -9 0 10
-262144 -1 -1 5841 1;
#X obj 280 186 * 0.49;
#X floatatom 397 323 5 0 0 0 - - -, f 5;
#X text 525 315 verificar os valores de bp2;
#X obj 182 65 switch~;
#X obj 204 35 tgl 15 0 empty empty empty 17 7 0 10 -262144 -1 -1 1
1;
#X obj 159 34 inlet;
#X obj 330 627 throw~ audioOut-R;
#X obj 216 627 throw~ audioOut-L;
#X msg 37 215 \; vol_micIn-r 0.2 \; vol_synth-r 0.99 \; att-r 40 \;
dec-r 750 \; bp2 3.8 \; Vol-r 0.9 \;;
#X obj 574 234 - 40;
#X connect 0 0 1 0;
#X connect 0 1 1 0;
#X connect 2 0 10 0;
#X connect 3 0 4 0;
#X connect 4 0 7 0;
#X connect 4 1 5 0;
#X connect 4 3 6 0;
#X connect 4 3 28 0;
#X connect 4 3 24 1;
#X connect 5 0 30 0;
#X connect 7 0 50 0;
#X connect 8 0 69 0;
#X connect 8 0 70 0;
#X connect 9 0 8 1;
#X connect 10 0 43 0;
#X connect 11 0 46 0;
#X connect 12 0 11 0;
#X connect 12 0 63 0;
#X connect 13 0 34 0;
#X connect 14 0 15 0;
#X connect 14 0 20 0;
#X connect 14 0 35 0;
#X connect 15 0 57 0;
#X connect 16 0 10 1;
#X connect 17 0 61 0;
#X connect 18 0 19 0;
#X connect 18 0 58 0;
#X connect 21 0 8 0;
#X connect 22 0 23 0;
#X connect 23 0 14 0;
#X connect 24 0 22 0;
#X connect 25 0 22 1;
#X connect 25 0 37 1;
#X connect 26 0 38 0;
#X connect 27 0 36 1;
#X connect 29 0 33 0;
#X connect 29 0 39 1;
#X connect 30 0 37 0;
#X connect 30 1 24 0;
#X connect 30 2 31 0;
#X connect 32 0 31 0;
#X connect 35 0 39 0;
#X connect 35 1 60 0;
#X connect 36 0 23 0;
#X connect 37 0 36 0;
#X connect 39 0 59 0;
#X connect 40 0 51 0;
#X connect 41 0 40 1;
#X connect 42 0 40 0;
#X connect 43 0 21 0;
#X connect 44 0 43 1;
#X connect 45 0 46 1;
#X connect 46 0 48 0;
#X connect 47 0 72 0;
#X connect 48 0 56 0;
#X connect 49 0 48 1;
#X connect 50 0 49 0;
#X connect 50 0 48 1;
#X connect 52 0 12 0;
#X connect 53 0 71 0;
#X connect 54 0 18 0;
#X connect 55 0 17 1;
#X connect 56 0 17 0;
#X connect 57 0 56 1;
#X connect 58 0 56 2;
#X connect 59 0 55 0;
#X connect 60 0 55 0;
#X connect 61 0 21 1;
#X connect 62 0 61 1;
#X connect 63 0 45 0;
#X connect 64 0 58 0;
#X connect 67 0 66 0;
#X connect 68 0 67 0;
#X connect 72 0 41 0;
#X restore 46 212 pd frsb2synth;
#X obj 25 212 tgl 15 0 empty empty empty 17 7 0 10 -262144 -1 -1 1
1;
#X obj 26 189 spigot;
#X obj 77 189 tgl 15 0 empty empty empty 17 7 0 10 -262144 -1 -1 0
1;
#X obj 228 400 s exp_audio;
#X obj 25 165 r exp_audio;
#X obj 30 495 spigot;
#X obj 78 497 tgl 15 0 empty empty empty 17 7 0 10 -262144 -1 -1 0
1;
#X obj 30 470 r exp_audio;
#X obj 26 303 spigot;
#X obj 76 303 tgl 15 0 empty empty empty 17 7 0 10 -262144 -1 -1 0
1;
#X obj 25 279 r exp_audio;
#X obj 33 401 spigot;
#X obj 78 403 tgl 15 0 empty empty empty 17 7 0 10 -262144 -1 -1 0
1;
#X obj 29 377 r exp_audio;
#N canvas 109 212 415 329 ring_mod 0;
#X obj 184 203 *~;
#X obj 183 230 hip~;
#X obj 206 166 osc~;
#X obj 67 23 r~ audioIn-L;
#X obj 149 22 r~ audioIn-R;
#X obj 327 65 switch~;
#X obj 331 39 tgl 15 0 empty empty empty 17 7 0 10 -262144 -1 -1 0
1;
#X obj 331 14 inlet;
#X obj 206 141 *;
#X obj 298 186 samplerate~;
#X obj 298 163 bng 18 250 50 0 empty empty empty 0 -6 0 8 -262144 -1
-1;
#X obj 298 139 loadbang;
#X obj 243 142 / 4096;
#X text 249 208 One bin is SR/4096:;
#X obj 209 105 hsl 128 15 8 800 1 0 empty empty empty -2 -8 0 10 -262144
-1 -1 0 1;
#X obj 158 257 throw~ audioOut-R;
#X obj 158 278 throw~ audioOut-L;
#X floatatom 230 70 5 0 0 0 - - -, f 5;
#X obj 255 50 env~;
#X connect 0 0 1 0;
#X connect 1 0 15 0;
#X connect 1 0 16 0;
#X connect 2 0 0 1;
#X connect 3 0 0 0;
#X connect 4 0 0 0;
#X connect 6 0 5 0;
#X connect 7 0 6 0;
#X connect 8 0 2 0;
#X connect 9 0 12 0;
#X connect 10 0 9 0;
#X connect 11 0 10 0;
#X connect 12 0 8 1;
#X connect 14 0 8 0;
#X connect 18 0 17 0;
#X restore 255 214 pd ring_mod;
#N canvas 786 284 323 457 AudioInOut 1;
#X obj 37 373 dac~;
#X obj 137 250 vsl 30 70 0 1 0 0 empty Vol_Out-r Vol_Out 0 -9 0 10
-262144 -1 -1 5520 1;
#X obj 83 333 *~;
#X obj 46 336 *~;
#X obj 83 333 *~;
#X obj 151 366 env~;
#X obj 207 70 s~ audioIn-R;
#X obj 125 71 s~ audioIn-L;
#X obj 28 102 vu 15 120 empty empty -1 -8 0 10 -66577 -1 1 0;
#X obj 35 52 env~;
#X obj 27 75 - 100;
#X obj 184 17 adc~;
#X obj 208 279 vu 15 120 empty empty -1 -8 0 10 -66577 -1 1 0;
#X obj 207 252 - 100;
#X obj 26 273 catch~ audioOut-R;
#X obj 26 294 catch~ audioOut-L;
#X connect 1 0 2 1;
#X connect 1 0 3 1;
#X connect 2 0 0 1;
#X connect 2 0 5 0;
#X connect 3 0 0 0;
#X connect 5 0 13 0;
#X connect 9 0 10 0;
#X connect 10 0 8 0;
#X connect 11 0 9 0;
#X connect 11 0 7 0;
#X connect 11 1 9 0;
#X connect 11 1 6 0;
#X connect 13 0 12 0;
#X connect 14 0 2 0;
#X connect 15 0 3 0;
#X restore 153 12 pd AudioInOut;
#X obj 256 191 tgl 15 0 empty empty empty 17 7 0 10 -262144 -1 -1 0
1;
#X msg 232 140 \; Vol_Out-r 0.8;
#X obj 107 462 hsl 128 15 1 90 0 0 empty empty empty -2 -8 0 10 -262144
-1 -1 0 1;
#X obj 109 648 shell;
#X msg 118 605 ./SonarX-pure.sh;
#X msg 38 567 /home/mick/LabIO/gits/SonarX_15_viewmodeFull/;
#X obj 114 677 print;
#X connect 0 0 1 0;
#X connect 4 0 5 0;
#X connect 4 1 3 0;
#X connect 6 0 4 0;
#X connect 7 0 16 0;
#X connect 9 0 8 0;
#X connect 9 0 23 0;
#X connect 10 0 0 0;
#X connect 10 0 18 0;
#X connect 10 0 37 0;
#X connect 12 0 11 0;
#X connect 14 0 13 0;
#X connect 15 0 2 0;
#X connect 18 0 17 0;
#X connect 20 0 19 0;
#X connect 21 0 20 0;
#X connect 22 0 21 1;
#X connect 24 0 21 0;
#X connect 25 0 12 0;
#X connect 26 0 25 1;
#X connect 27 0 25 0;
#X connect 28 0 14 0;
#X connect 29 0 28 1;
#X connect 30 0 28 0;
#X connect 31 0 15 0;
#X connect 32 0 31 1;
#X connect 33 0 31 0;
#X connect 36 0 34 0;
#X connect 39 0 42 0;
#X connect 40 0 39 0;
#X connect 41 0 39 0;
