#N canvas 2 88 495 629 10;
#X obj 28 114 gemwin;
#X msg 46 74 destroy;
#X obj 23 474 JW-V;
#N canvas 68 113 816 515 COMUNICATIONS-V 0;
#X obj 35 186 netsend;
#X msg 23 41 connect localhost 8000;
#X obj 75 132 prepend send;
#X obj 103 73 r JW;
#X msg 81 102 JW \$1;
#X obj 30 210 tgl 15 0 empty empty empty 17 7 0 10 -262144 -1 -1 0
1;
#X obj 28 233 outlet;
#X obj 21 10 inlet;
#X obj 203 235 netreceive 8001;
#X obj 347 258 outlet;
#X obj 158 422 route COR TAMANHO;
#X obj 144 473 s Bl-COR;
#X obj 221 473 s Bl-TAMANHO;
#X obj 255 339 route Cor;
#X obj 256 365 s Life-Cor;
#X msg 78 157 disconnect;
#X obj 283 -8 r CHNG1;
#X obj 367 -2 r CHNG2;
#X obj 503 0 r CHNG3;
#X obj 625 99 r CHNG6;
#X obj 527 105 r CHNG5;
#X obj 626 -9 r CHNG4;
#X obj 447 204 r CHNG7;
#X obj 549 203 r CHNG8;
#X obj 656 203 r CHNG9;
#X obj 383 151 prepend send;
#X msg 428 283 nuAir \$1 CHNG7;
#X msg 529 294 nuAir \$1 CHNG8;
#X msg 625 294 nuAir \$1 CHNG9;
#X msg 611 148 nuAir \$1 CHNG6;
#X msg 515 157 nuAir \$1 CHNG5;
#X msg 608 59 nuAir \$1 CHNG4;
#X msg 485 54 nuAir \$1 CHNG3;
#X msg 375 70 nuAir \$1 CHNG2;
#X msg 272 66 nuAir \$1 CHNG1;
#X obj 276 19 change;
#X obj 354 27 change;
#X obj 488 23 change;
#X obj 606 31 change;
#X obj 534 128 change;
#X obj 618 122 change;
#X obj 441 244 change;
#X obj 528 253 change;
#X obj 644 250 change;
#X obj 346 370 s Explosion;
#X floatatom 461 355 5 0 0 0 - - -, f 5;
#X obj 202 307 route Bolinhas Life Explosion audio-vol audio-cor;
#X obj 528 359 s audio-cor;
#X obj 472 407 s audio-vol;
#X floatatom 577 397 5 0 0 0 - - -, f 5;
#X connect 0 0 5 0;
#X connect 1 0 0 0;
#X connect 2 0 0 0;
#X connect 3 0 4 0;
#X connect 4 0 2 0;
#X connect 5 0 6 0;
#X connect 7 0 1 0;
#X connect 8 0 46 0;
#X connect 10 0 11 0;
#X connect 10 1 12 0;
#X connect 13 0 14 0;
#X connect 15 0 0 0;
#X connect 16 0 35 0;
#X connect 17 0 36 0;
#X connect 18 0 37 0;
#X connect 19 0 40 0;
#X connect 20 0 39 0;
#X connect 21 0 38 0;
#X connect 22 0 41 0;
#X connect 23 0 42 0;
#X connect 24 0 43 0;
#X connect 25 0 0 0;
#X connect 26 0 25 0;
#X connect 27 0 25 0;
#X connect 28 0 25 0;
#X connect 29 0 25 0;
#X connect 30 0 25 0;
#X connect 31 0 25 0;
#X connect 32 0 25 0;
#X connect 33 0 25 0;
#X connect 34 0 25 0;
#X connect 35 0 34 0;
#X connect 36 0 33 0;
#X connect 37 0 32 0;
#X connect 38 0 31 0;
#X connect 39 0 30 0;
#X connect 40 0 29 0;
#X connect 41 0 26 0;
#X connect 42 0 27 0;
#X connect 43 0 28 0;
#X connect 45 0 48 0;
#X connect 46 0 10 0;
#X connect 46 1 13 0;
#X connect 46 2 44 0;
#X connect 46 3 45 0;
#X connect 46 4 47 0;
#X connect 46 4 49 0;
#X restore 295 101 pd COMUNICATIONS-V;
#X obj 295 123 tgl 15 0 empty empty empty 17 7 0 10 -262144 -1 -1 0
1;
#X obj 25 568 Bolinhas-V;
#X obj 118 61 gemhead;
#X obj 118 88 world_light;
#X floatatom 400 125 5 0 0 0 - - -, f 5;
#X obj 374 583 Life-V;
#X obj 25 549 tgl 15 0 empty empty empty 17 7 0 10 -262144 -1 -1 0
1;
#X msg 10 19 reset \, dimen 1024 768 \, FSAA 8 \, lighting 1 \, create
\, 1;
#X obj 296 71 bng 15 250 50 0 empty empty empty 17 7 0 10 -262144 -1
-1;
#X obj 374 562 tgl 15 0 empty empty empty 17 7 0 10 -262144 -1 -1 0
1;
#X msg 38 52 create \, 1;
#X obj 23 455 tgl 15 0 empty empty empty 17 7 0 10 -262144 -1 -1 0
1;
#X obj 374 498 r Explosion;
#X obj 374 518 bng 15 250 50 0 empty empty empty 17 7 0 10 -262144
-1 -1;
#X obj 374 540 spigot;
#X obj 407 521 tgl 15 0 empty empty empty 17 7 0 10 -262144 -1 -1 0
1;
#N canvas 506 77 834 660 audio-words 0;
#X obj 132 229 pix_rgba;
#X obj 132 259 pix_flip;
#X obj 132 301 t a a;
#X msg 35 221 horizontal;
#X obj 35 196 r init;
#X obj 36 139 s init;
#X obj 35 114 loadbang;
#X obj 37 364 pix_separator;
#X obj 151 346 pix_separator;
#X obj 34 396 pix_texture;
#X obj 32 427 rectangle 5.33 4;
#X obj 153 419 pix_movement;
#X obj 178 391 hsl 128 15 0 1 0 0 empty empty empty -2 -8 0 10 -262144
-1 -1 0 1;
#X obj 154 451 alpha;
#X obj 142 518 pix_blob;
#X obj 171 485 hradio 15 1 0 5 empty empty empty 0 -8 0 10 -262144
-1 -1 4;
#X floatatom 51 557 5 0 0 0 - - -, f 5;
#X floatatom 87 559 5 0 0 0 - - -, f 5;
#X obj 357 142 part_head;
#X obj 357 394 part_killold 20;
#X obj 363 464 part_color;
#X msg 374 424 0.5 1 0;
#X msg 432 426 0 1 1;
#X obj 365 517 part_size;
#X floatatom 421 498 5 0 0 0 - - -, f 5;
#X obj 365 546 part_render;
#X obj 359 63 gemhead 55;
#X obj 131 612 s X;
#X obj 182 612 s Y;
#X obj 133 585 - 5.33;
#X obj 133 560 * 10.66;
#X obj 188 582 - 4;
#X obj 187 556 * 8;
#X obj 361 616 text3d;
#X msg 388 586 font PUSSSA__.TTF;
#X msg 534 487 text words;
#X obj 290 454 r init;
#X msg 289 143 speed \$1;
#X obj 288 106 hsl 128 15 0 1 0 0 empty empty empty -2 -8 0 10 -262144
-1 -1 889 1;
#X obj 350 220 part_velocity 0 0 0.1 0.2;
#X obj 356 333 part_orbitpoint;
#X obj 351 187 part_source 5 point 0 0 0;
#X obj 397 271 r X;
#X obj 427 272 r Y;
#X obj 398 301 pack f f 0;
#X floatatom 478 305 5 0 0 0 - - -, f 5;
#X obj 436 121 r X;
#X obj 466 122 r Y;
#X obj 437 151 pack f f 0;
#X msg 566 516 text BLA;
#X obj 522 274 vsl 15 128 -20 20 0 0 empty empty gravity -30 -9 0 10
-262130 -1 -1 0 1;
#X msg 218 465 4;
#X obj 253 41 r init;
#X msg 390 495 0.2;
#X obj 134 82 tgl 15 0 empty empty empty 17 7 0 10 -262144 -1 -1 0
1;
#X obj 134 52 inlet onOff;
#X obj 518 87 s word_color-bang;
#N canvas 1 57 450 435 word-colors 0;
#X obj 99 11 r word_color-bang;
#X obj 111 375 outlet;
#X obj 250 378 outlet;
#X obj 128 37 t b b b;
#X obj 139 112 random 100;
#X obj 139 137 / 100;
#X obj 163 220 hsv2rgb;
#X obj 173 190 pack f f 1;
#X obj 206 113 random 100;
#X obj 206 138 / 100;
#X obj 117 244 tgl 15 0 empty empty empty 17 7 0 10 -262144 -1 -1 0
1;
#X obj 191 295 demux . .;
#X text 220 20 changes word color at each bang;
#X connect 0 0 3 0;
#X connect 3 0 10 0;
#X connect 3 1 4 0;
#X connect 3 2 8 0;
#X connect 4 0 5 0;
#X connect 5 0 7 0;
#X connect 6 0 11 0;
#X connect 7 0 6 0;
#X connect 8 0 9 0;
#X connect 9 0 7 1;
#X connect 10 0 11 1;
#X connect 11 0 1 0;
#X connect 11 1 2 0;
#X restore 477 427 pd word-colors;
#X obj 46 329 spigot;
#X obj 95 332 tgl 15 0 empty empty empty 17 7 0 10 -262144 -1 -1 0
1;
#N canvas 1 56 476 464 det_speed 0;
#X obj 265 36 r Y;
#X obj 71 22 r X;
#X obj 92 121 f;
#X obj 73 157 -;
#X obj 59 66 t f f b;
#X floatatom 69 206 5 0 0 0 - - -, f 5;
#X obj 234 140 vsl 15 128 0 10 0 0 empty empty empty 0 -9 0 10 -262144
-1 -1 81 1;
#X obj 151 141 pack f 50;
#X obj 149 168 line;
#X obj 124 152 abs;
#X obj 299 127 f;
#X obj 280 163 -;
#X obj 266 72 t f f b;
#X floatatom 276 212 5 0 0 0 - - -, f 5;
#X obj 418 144 vsl 15 128 0 10 0 0 empty empty empty 0 -9 0 10 -262144
-1 -1 195 1;
#X obj 358 147 pack f 50;
#X obj 356 174 line;
#X obj 331 158 abs;
#X obj 240 292 expr sqrt($f1*$f1+$f2*$f2);
#X obj 237 420 s tot_speed;
#X obj 238 356 pack f 100;
#X obj 247 393 line;
#X floatatom 200 84 5 0 0 0 - - -, f 5;
#X text 122 0 speed detection \; horizontal (also left right) \; vertical
(up or down);
#X text 113 210 H speed;
#X text 291 232 V speed;
#X connect 0 0 12 0;
#X connect 1 0 4 0;
#X connect 2 0 3 1;
#X connect 3 0 5 0;
#X connect 3 0 9 0;
#X connect 4 0 3 0;
#X connect 4 1 2 1;
#X connect 4 2 2 0;
#X connect 7 0 8 0;
#X connect 8 0 6 0;
#X connect 8 0 18 0;
#X connect 9 0 7 0;
#X connect 10 0 11 1;
#X connect 11 0 13 0;
#X connect 11 0 17 0;
#X connect 12 0 11 0;
#X connect 12 1 10 1;
#X connect 12 2 10 0;
#X connect 15 0 16 0;
#X connect 16 0 14 0;
#X connect 16 0 18 1;
#X connect 17 0 15 0;
#X connect 18 0 20 0;
#X connect 20 0 21 0;
#X connect 21 0 19 0;
#X connect 22 0 7 1;
#X connect 22 0 15 1;
#X restore 34 611 pd det_speed;
#X obj 652 88 r tot_speed;
#X floatatom 652 130 5 0 0 0 - - -, f 5;
#X obj 648 177 sel 1;
#X obj 673 392 random 5;
#X msg 630 564 text MAIS;
#X floatatom 702 119 5 0 0 0 - - -, f 5;
#X msg 581 544 text pensamentos;
#X obj 693 370 bng 15 250 50 0 empty empty empty 17 7 0 10 -262144
-1 -1;
#X obj 665 230 t b b;
#X obj 686 205 bng 15 250 50 0 empty empty empty 17 7 0 10 -262144
-1 -1;
#X obj 655 290 onebang;
#X obj 721 259 delay 2000;
#X obj 651 151 > 3;
#X text 13 9 words change with amount of movement (speed of blob) \;
color cnages on bang inlet;
#X msg 253 85 0.07;
#X floatatom 634 421 5 0 0 0 - - -, f 5;
#X obj 677 426 sel 0 1 2 3 4 5 6 7 8;
#X msg 703 612 text cenas;
#X obj 516 12 r audio-cor;
#X msg 667 585 text rinoceronte;
#X floatatom 601 42 5 0 0 0 - - -, f 5;
#X obj 584 64 sel 1;
#X obj 672 51 bng 15 250 50 0 empty empty empty 17 7 0 10 -262144 -1
-1;
#X obj 521 55 > 0.5;
#X obj 89 52 r IMG;
#X obj 134 122 spigot;
#X msg 80 181 0;
#X connect 0 0 1 0;
#X connect 1 0 2 0;
#X connect 2 1 8 0;
#X connect 3 0 1 0;
#X connect 4 0 3 0;
#X connect 4 0 87 0;
#X connect 6 0 5 0;
#X connect 7 0 9 0;
#X connect 8 0 11 0;
#X connect 9 0 10 0;
#X connect 11 0 13 0;
#X connect 12 0 11 1;
#X connect 13 0 14 0;
#X connect 14 0 58 0;
#X connect 14 1 16 0;
#X connect 14 1 30 0;
#X connect 14 2 17 0;
#X connect 14 2 32 0;
#X connect 15 0 14 1;
#X connect 18 0 41 0;
#X connect 19 0 20 0;
#X connect 20 0 23 0;
#X connect 21 0 20 1;
#X connect 22 0 20 2;
#X connect 23 0 25 0;
#X connect 24 0 23 1;
#X connect 25 0 33 0;
#X connect 26 0 18 0;
#X connect 29 0 27 0;
#X connect 30 0 29 0;
#X connect 31 0 28 0;
#X connect 32 0 31 0;
#X connect 34 0 33 0;
#X connect 35 0 33 0;
#X connect 36 0 34 0;
#X connect 36 0 21 0;
#X connect 36 0 22 0;
#X connect 36 0 53 0;
#X connect 36 0 51 0;
#X connect 36 0 35 0;
#X connect 37 0 18 0;
#X connect 38 0 37 0;
#X connect 39 0 40 0;
#X connect 40 0 19 0;
#X connect 41 0 39 0;
#X connect 42 0 44 0;
#X connect 43 0 44 1;
#X connect 44 0 40 1;
#X connect 45 0 40 2;
#X connect 46 0 48 0;
#X connect 47 0 48 1;
#X connect 48 0 41 3;
#X connect 49 0 33 0;
#X connect 50 0 45 0;
#X connect 51 0 15 0;
#X connect 52 0 75 0;
#X connect 53 0 24 0;
#X connect 54 0 26 0;
#X connect 54 0 86 1;
#X connect 55 0 54 0;
#X connect 57 0 20 1;
#X connect 57 1 20 2;
#X connect 58 0 7 0;
#X connect 59 0 58 1;
#X connect 61 0 62 0;
#X connect 62 0 73 0;
#X connect 63 0 69 0;
#X connect 64 0 76 0;
#X connect 64 0 77 0;
#X connect 65 0 33 0;
#X connect 66 0 73 1;
#X connect 67 0 33 0;
#X connect 68 0 64 0;
#X connect 69 0 71 0;
#X connect 69 1 72 0;
#X connect 70 0 69 0;
#X connect 71 0 68 0;
#X connect 72 0 71 1;
#X connect 73 0 63 0;
#X connect 75 0 38 0;
#X connect 77 0 35 0;
#X connect 77 1 49 0;
#X connect 77 2 67 0;
#X connect 77 3 65 0;
#X connect 77 4 80 0;
#X connect 79 0 81 0;
#X connect 79 0 84 0;
#X connect 80 0 33 0;
#X connect 82 0 56 0;
#X connect 82 0 83 0;
#X connect 84 0 82 0;
#X connect 85 0 86 0;
#X connect 86 0 0 0;
#X connect 87 0 54 0;
#X restore 23 262 pd audio-words;
#X obj 66 242 bng 15 250 50 0 empty empty empty 17 7 0 10 -262144 -1
-1;
#X obj 23 240 tgl 15 0 empty empty empty 17 7 0 10 -262144 -1 -1 0
1;
#X obj 59 171 r audio-vol;
#X obj 63 198 > 1.2;
#X obj 65 220 sel 1;
#X obj 20 396 nuAir-V;
#X obj 20 374 tgl 15 0 empty empty empty 17 7 0 10 -262144 -1 -1 0
1;
#X obj 20 310 r Explosion;
#X obj 20 330 bng 15 250 50 0 empty empty empty 17 7 0 10 -262144 -1
-1;
#X obj 20 352 spigot;
#X obj 53 333 tgl 15 0 empty empty empty 17 7 0 10 -262144 -1 -1 0
1;
#X obj 118 500 r Explosion;
#X obj 118 520 bng 15 250 50 0 empty empty empty 17 7 0 10 -262144
-1 -1;
#X obj 71 545 spigot;
#X obj 119 546 tgl 15 0 empty empty empty 17 7 0 10 -262144 -1 -1 0
1;
#X text 178 166 AUDIO WORDS \; video PC LOOPER + FRSB2SYNTH \; NU_AIR
\; JOHN WHATEVER \; muda frsb to micro BOLINHAS TO TCHEVA \;;
#N canvas 460 248 450 300 palavras_andantes 0;
#X obj 27 42 tgl 15 0 empty empty empty 17 7 0 10 -262144 -1 -1 1 1
;
#X obj 24 69 s pal_and_ON;
#X msg 160 70 yo;
#X msg 157 151 bla;
#X obj 154 91 palavra_andante 30 1;
#X msg 280 122 ping;
#X msg 277 202 pong;
#X obj 30 17 inlet;
#X obj 95 17 loadbang;
#X msg 95 44 0;
#X obj 140 46 bng 15 250 50 0 empty empty empty 17 7 0 10 -262144 -1
-1;
#X obj 151 172 palavra_andante 20 2;
#X obj 274 143 palavra_andante 10 -1;
#X obj 271 224 palavra_andante 13 3;
#X connect 0 0 1 0;
#X connect 2 0 4 0;
#X connect 3 0 11 0;
#X connect 5 0 12 0;
#X connect 6 0 13 0;
#X connect 7 0 0 0;
#X connect 8 0 9 0;
#X connect 8 0 10 0;
#X connect 9 0 0 0;
#X connect 10 0 2 0;
#X connect 10 0 3 0;
#X connect 10 0 5 0;
#X connect 10 0 6 0;
#X restore 155 339 pd palavras_andantes;
#N canvas 111 537 415 188 VideoInOut 0;
#X obj 75 78 pix_video;
#X obj 75 48 gemhead;
#X obj 75 111 s IMG;
#X text 222 36 general input from video stream;
#X msg 153 79 device \$1;
#X obj 188 57 hradio 15 1 0 4 empty empty empty 0 -8 0 10 -262144 -1
-1 1;
#X obj 187 27 inlet;
#X connect 0 0 2 0;
#X connect 1 0 0 0;
#X connect 4 0 0 0;
#X connect 5 0 4 0;
#X connect 6 0 5 0;
#X restore 114 133 pd VideoInOut;
#X obj 156 308 tgl 15 0 empty empty empty 17 7 0 10 -262144 -1 -1 1
1;
#X obj 116 114 hradio 15 1 0 4 empty empty empty 0 -8 0 10 -262144
-1 -1 1;
#X connect 1 0 0 0;
#X connect 3 0 4 0;
#X connect 3 1 8 0;
#X connect 6 0 7 0;
#X connect 10 0 5 0;
#X connect 11 0 0 0;
#X connect 12 0 3 0;
#X connect 13 0 9 0;
#X connect 14 0 0 0;
#X connect 15 0 2 0;
#X connect 16 0 17 0;
#X connect 17 0 18 0;
#X connect 18 0 13 0;
#X connect 19 0 18 1;
#X connect 22 0 20 0;
#X connect 23 0 24 0;
#X connect 24 0 25 0;
#X connect 25 0 21 0;
#X connect 27 0 26 0;
#X connect 28 0 29 0;
#X connect 29 0 30 0;
#X connect 30 0 27 0;
#X connect 31 0 30 1;
#X connect 32 0 33 0;
#X connect 33 0 34 0;
#X connect 34 0 10 0;
#X connect 35 0 34 1;
#X connect 39 0 37 0;
#X connect 40 0 38 0;
