#N canvas 437 150 742 617 10;
#X obj 139 198 pix_rgba;
#X obj 38 555 rectangle 5.333 4;
#X obj 40 523 pix_texture;
#X obj 94 408 pix_delay;
#X msg 130 382 10;
#X obj 41 492 pix_diff;
#X obj 101 306 pix_separator;
#X obj 70 269 pix_separator;
#X obj 211 391 pix_delay;
#X obj 87 454 pix_diff;
#X msg 261 365 20;
#X obj 165 438 pix_diff;
#X obj 328 360 pix_delay;
#X obj 300 280 pix_separator;
#X msg 366 336 30;
#X obj 427 355 pix_delay;
#X obj 411 265 pix_separator;
#X msg 476 322 40;
#X obj 316 396 pix_diff;
#X obj 130 357 r B;
#X obj 161 332 pix_separator;
#X obj 262 343 r B;
#X obj 367 312 r B;
#X obj 475 296 r B;
#X obj 137 28 r IMG;
#X obj 518 318 pix_delay;
#X obj 490 238 pix_separator;
#X obj 617 313 pix_delay;
#X obj 601 223 pix_separator;
#X obj 506 354 pix_diff;
#X obj 557 270 r B;
#X obj 665 254 r B;
#X obj 139 225 t a a a a a a a;
#X msg 556 294 50;
#X msg 666 280 60;
#X obj 217 19 inlet;
#X obj 142 65 spigot;
#X obj 218 40 tgl 15 0 empty empty empty 17 7 0 10 -262144 -1 -1 1
1;
#X obj 141 117 pix_flip;
#X msg 195 92 horizontal;
#X connect 0 0 32 0;
#X connect 2 0 1 0;
#X connect 3 0 9 0;
#X connect 4 0 3 1;
#X connect 5 0 2 0;
#X connect 6 0 3 0;
#X connect 7 0 5 0;
#X connect 8 0 11 0;
#X connect 9 0 5 1;
#X connect 10 0 8 1;
#X connect 11 0 9 1;
#X connect 12 0 18 0;
#X connect 13 0 12 0;
#X connect 14 0 12 1;
#X connect 15 0 18 1;
#X connect 16 0 15 0;
#X connect 17 0 15 1;
#X connect 18 0 11 1;
#X connect 19 0 4 0;
#X connect 20 0 8 0;
#X connect 21 0 10 0;
#X connect 22 0 14 0;
#X connect 23 0 17 0;
#X connect 24 0 36 0;
#X connect 25 0 29 0;
#X connect 26 0 25 0;
#X connect 27 0 29 1;
#X connect 28 0 27 0;
#X connect 30 0 33 0;
#X connect 31 0 34 0;
#X connect 32 0 7 0;
#X connect 32 1 6 0;
#X connect 32 2 20 0;
#X connect 32 3 13 0;
#X connect 32 4 16 0;
#X connect 32 5 26 0;
#X connect 32 6 28 0;
#X connect 33 0 25 1;
#X connect 34 0 27 1;
#X connect 35 0 37 0;
#X connect 36 0 38 0;
#X connect 37 0 36 1;
#X connect 38 0 0 0;
#X connect 39 0 38 1;
